<?xml version="1.0" standalone="no"?>
<svg xmlns:xlink="http://www.w3.org/1999/xlink" id="wave" style="transform:rotate(0deg); transition: 0.3s" viewBox="0 0 1440 100" version="1.1" xmlns="http://www.w3.org/2000/svg"><defs><linearGradient id="sw-gradient-0" x1="0" x2="0" y1="1" y2="0"><stop stop-color="rgba(243, 106, 62, 1)" offset="0%"/><stop stop-color="rgba(255, 179, 11, 1)" offset="100%"/></linearGradient></defs><path style="transform:translate(0, 0px); opacity:1" fill="url(#sw-gradient-0)" d="M0,60L12,53.3C24,47,48,33,72,25C96,17,120,13,144,25C168,37,192,63,216,63.3C240,63,264,37,288,30C312,23,336,37,360,48.3C384,60,408,70,432,65C456,60,480,40,504,35C528,30,552,40,576,43.3C600,47,624,43,648,45C672,47,696,53,720,48.3C744,43,768,27,792,28.3C816,30,840,50,864,53.3C888,57,912,43,936,38.3C960,33,984,37,1008,41.7C1032,47,1056,53,1080,51.7C1104,50,1128,40,1152,30C1176,20,1200,10,1224,18.3C1248,27,1272,53,1296,53.3C1320,53,1344,27,1368,23.3C1392,20,1416,40,1440,48.3C1464,57,1488,53,1512,58.3C1536,63,1560,77,1584,81.7C1608,87,1632,83,1656,76.7C1680,70,1704,60,1716,55L1728,50L1728,100L1716,100C1704,100,1680,100,1656,100C1632,100,1608,100,1584,100C1560,100,1536,100,1512,100C1488,100,1464,100,1440,100C1416,100,1392,100,1368,100C1344,100,1320,100,1296,100C1272,100,1248,100,1224,100C1200,100,1176,100,1152,100C1128,100,1104,100,1080,100C1056,100,1032,100,1008,100C984,100,960,100,936,100C912,100,888,100,864,100C840,100,816,100,792,100C768,100,744,100,720,100C696,100,672,100,648,100C624,100,600,100,576,100C552,100,528,100,504,100C480,100,456,100,432,100C408,100,384,100,360,100C336,100,312,100,288,100C264,100,240,100,216,100C192,100,168,100,144,100C120,100,96,100,72,100C48,100,24,100,12,100L0,100Z"/></svg>